<?xml version="1.0" encoding="utf-8"?>
<!-- Generator: Adobe Illustrator 30.0.0, SVG Export Plug-In . SVG Version: 9.03 Build 0)  -->
<svg version="1.1" id="Capa_1" xmlns="http://www.w3.org/2000/svg" xmlns:xlink="http://www.w3.org/1999/xlink" x="0px" y="0px"
	 width="1024px" height="1024px" viewBox="0 0 1024 1024" style="enable-background:new 0 0 1024 1024;" xml:space="preserve">
<style type="text/css">
	.st0{fill:#94CA57;}
	.st1{fill:#0E704D;}
</style>
<g>
	<g>
		<g>
			<path class="st0" d="M586.2,511.2l17.7,14.8c33.6,21.2,79.5-7.5,70.9-48.4c-2.5-12-8.5-18.5-6.6-32.2c0.6-4.3,5.3-11.6,8.4-14.6
				c7.9-7.5,25-6.4,33.5-0.4c17.8,12.5,28.1,42.3,25.9,63.8c-1.4,14.3-12.7,40.5-23.9,49.6c-28.7,23.5-87.4,27.6-110.9-1.2
				C593.2,532.8,589.9,522.9,586.2,511.2z"/>
			<path class="st1" d="M640,549.6c22,8.9,45,12.2,67.9-8.2c11.9-10.7,27.8-39,28.5-55c1,14.9-0.9,28.7-5,43h16.5
				c8.3,0,21.5,12.9,24.7,20.3c18.8,43.1-47.5,71.3-64.9,26.9c-1-2.6-1.5-6.9-2.3-8.6c-0.5-1.1-1.7-1-2.5-0.7
				c-0.5,0.2-5.5,6.9-7.5,8.5c-64.6,54.6-127.7,6.2-155.7-57.3c-1.9-4.3-2.1-10.8-5.2-14.8c-1.9-2.5-19.8-13.9-23.7-16.3
				c-28.3-17.1-79.2-37.9-112.8-35.2c-8.1,0.7-15.8,3.6-23.5,6c-11.7,3.6-21.6,7-31.5,15c-28.8,23.4-34,72.3-10.5,101
				c-2-0.5-9.6-10.6-11-9c-0.4,12.9-11.2,27.9-23.5,32c-29.7,10-58.3-21.1-43.7-49.7c1.2-2.3,10.1-13.2,11.9-14.3
				c10.5-6.2,28-5.5,38.3,1c-3.3-15.8-6.3-30-4.9-46.4c6.4-73.3,63-95.6,129.1-79.3c4.6,1.1,22.9,7.9,25.3,7.7
				c1.1-0.1,7-3.7,8.5-4.6c23.5-14.3,51.1-45.6,66.5-68.5c14.6-21.7,33.3-58.2,25.6-84.9c-4.3-8.9-7.3-37.7-19.7-52.8
				c-22-15.8-45-14.9-70.8-15.2c-1.7,0-4.4,0.6-5.5-1c2.2-1.3,10.1-5.3,11.8-5.9c4.9-1.8,12-2.7,17.2-4.1c0.9-1-8.1-14.2-9.2-17.3
				c-10.6-29.8,17.3-55.6,46.8-44.8c2.6,0.9,14.6,11.6,16.8,15.2c9.9,16.1,3.1,35-10.4,46.4c0,1.5,14.2,4.9,17,6
				c26.3,10.3,50,32.3,56.7,60.3c13.8,57.6-18.6,98.7-59.2,134.2c-0.6,29.8,6.9,60.4,18,87.9c7.8,19.3,20.7,46.9,36.5,60.5
				c9.4,8.2,16.6,12.2,27.2,16.9L640,549.6z M535.4,387.3c-1.4-0.3-2.5,0.3-3.7,0.8c-14.8,6.2-29.5,17.4-46,24
				c-3.6,1.4-21.5,6.4-22.3,7.2c-1.5,1.5,0.6,1.8,1.3,2.3c5,3.9,11.7,7,17.1,10.9c11.5,8.4,23.6,19.3,33.2,29.8
				c2.5,2.7,12.2,16.3,14,17c2.1,0.9,1.3-1.3,1.2-2.2c-0.4-4.5-1.6-9.9-1.8-14.2C527.3,437.1,533,412.8,535.4,387.3z"/>
			<path class="st0" d="M374.4,458.3L359.6,476c-21.2,33.6-1.9,69.6,39,61c12-2.5,18.5-8.5,32.2-6.6c4.3,0.6,11.6,5.3,14.6,8.4
				c7.5,7.9,6.4,25,0.4,33.5c-12.5,17.8-42.3,28.1-63.8,25.9c-14.3-1.4-40.5-12.7-49.6-23.9c-23.5-28.7-18.3-77.6,10.5-101
				C352.8,465.3,362.7,461.9,374.4,458.3z"/>
			<path class="st0" d="M497.7,230.3c-14.3,4-24.6,17.8-26.3,33.5c-1.8,16.6,8.2,28.7-4,44c-11.7,14.7-32.9,12.3-42.8-3.2
				c-11.4-17.9-6.6-47.7-1.3-66.9c0.6-2.3,2.1-7,3.1-9.2c7.9-17.3,13.5-28.9,32-39.3c1,1.7,3.8,1,5.5,1c25.9,0.3,48.9-0.6,70.8,15.2
				c17.3,12.4,26.3,48.7,21.4,69.6c-4.6-15.9-23-46.6-39.4-46.6C512,228.4,502.3,229,497.7,230.3z"/>
		</g>
		<g>
			<path class="st1" d="M675.5,870.9c1-3.7-0.2-9.4-0.1-13.6v-40v-24v-2c-0.1-27.1,5.6-67.1-12-88.5c-41.4-50.4-95,5.4-98,53
				c2,34.8-2.7,72.6,0,107c1.7,21.4,16.2,24.1,35,23.5l-1,11H491.9c-14.8-1.1-31.2-6.8-37.9-21.1c-1-2.1-4.5-12.8-4.5-14.5v-80.4
				c-23.2,1.4-47.3,2.1-70.4,5.1c-19.6,2.5-39,3.9-47.8,24.2c-9.5,22-5.3,59.4,21.4,67c23.4,6.7,45.3-6.3,64.2-18.4
				c2.9,5.9,8.1,9.9,12.5,14.6c0,1-12,9.7-14,11c-11.8,7.2-21.3,13.4-35.9,16.1c-34.4,6.3-66.9-8.8-78.6-42.6
				c-10.4,28.4-39,46.2-68.1,49.9c-28.3,3.6-45.5-1.3-67.5-17.3c-1.3-0.9-3.7-2.9-4.9-4.1c-7.3-7.1-18.7-22.4-20.6-32.5
				c-1.1-5.9,3.5-10.3,6.5-14.7c2.3-3.4,2-3.1,4.7-6.3c1.3-1.5,3.4-5.4,5-6.1c2-0.8,1.4,1.4,1.8,2.2c13.3,31.5,32.1,61.3,72.1,57.7
				c45.8-4.1,71.1-55.7,22.7-81.4c-35.1-18.6-90.5-31.2-100.4-76.6c-11.7-53.5,43.7-80.4,89.6-72.6c38.1,6.5,88.8,44.5,34.2,72.7
				c-3.2-17.6-7.5-38-22.6-49.4c-33.2-25.2-88,5.4-74,47c12.6,37.4,82.9,43.1,109,76c2.5,3.2,5.7,11.6,9.5,11.5
				c7.2-37.4,47.3-45.1,79.2-49.9c14.5-2.2,31.2-4.2,45.9-5.1c4.1-0.3,26.9,1.2,27.5-1.7l-1.1-36.8c-3.8-37.8-43.5-48.9-75.8-40.9
				c-16.8,4.2-27.8,17.5-33.8,33.2c-1.2,3.1-5.4,20.1-6.3,20.7c-2,1.5-9.4-3.3-11.4-4.8c-31.7-23.3,6.3-59.3,30.8-68.9
				c14.6-5.7,34.4-6.5,49.9-4.8c15.2,1.6,38.2,6.8,50.5,15.5c25.2,17.7,27.1,54.6,28.1,82.9c1.1,32-1.7,65.3-0.1,97.1
				c0.8,15.2,7.2,31,24.5,32.5c5.6,0.5,15.5-0.6,19.2-5.3c0.8-1.1,6-14.6,6.2-16.3c2.3-15.7-1.1-35.2-1-50.9
				c0.2-33.7,3.8-69.3,1.1-103c-0.7-8-4.6-20-11.8-24.2c-8.6-4.9-18.8-3.4-28.1-1.4c0.5-2.8-1.1-12.2,0.9-13.6
				c12.5-0.6,25-1.4,37.6-1.4c6.5,0,10.3-0.4,17.1,1.9c11.1,3.8,14.3,13.7,17.4,23.6c0.3,1.1-0.7,1.8,1.5,1.5
				c3.3-0.5,2.6-3.1,3.9-4.6c33.1-39.2,89-41.4,121.4-0.7c3.9,4.9,6.6,10.8,9.9,16.1c0.4,0.6-0.1,1.9,1.7,1.3
				c1.1-0.4,11.1-16.6,13.5-19.5c45.7-53.8,132.4-23.1,137,45.9c2.9,42.8-2.4,88.6,0.2,131.8c1.6,9.8,6.3,14.4,15.2,17.8
				c2.7,1,15,3.4,15.4,4.1c0.3,0.5,0.4,7.2,0.2,8.2c-0.6,2.7-26.7,3-30.6,2.7c-19.7-1.6-31-16.5-32.5-35.5
				c-3.3-42.1,3.4-89,0.1-131.1c-1.5-19.4-14.1-39.2-33.3-44.7c-39-11.4-73.2,21.3-79.5,58v125.5c1.1,10.1,10.7,13.8,19.5,15.5
				c2,0.4,12.8,0.8,13.2,1.3c0.6,0.5,0.4,11-2.5,11h-91c-2.1,0-0.9-9.3-0.4-9.9c2.6-2.7,6.1,0.1,12.6-0.6c8.4-1.8,11.3-6.2,12.3-8.2
				C673.3,876.7,675,872.9,675.5,870.9z"/>
			<path class="st0" d="M675.4,857.3c0.2-13.3-0.1-26.7,0-40V857.3z"/>
		</g>
	</g>
</g>
</svg>
